# xmcd
#
# Track frame offsets: 
#        150
#        34043
#        61530
#        90658
#        123880
#        151514
#        182437
#        227914
#        261326
#        293523
#        327188
#
# Disc length: 4777 seconds
#
# Revision: 0
# Processed by: cddbd v1.5.2PL0 Copyright (c) Steve Scherf et al.
# Submitted via: ExactAudioCopy v1.3
#
DISCID=7f12a70b
DTITLE=Various Artist - Akella Presents - vol. 185 - Long Time Rockin
DTITLE=' Blues  CD2
DYEAR=2019
DGENRE=Blues
TTITLE0=Billy C. Farlow - Meet Me At Midnight
TTITLE1=Chris Cain Nasta Super - Help the Poor
TTITLE2=Billy Hector - Whiskey
TTITLE3=John Mayall - Nobody Told Me
TTITLE4=Charlie Vitamine - Bleeding Heart
TTITLE5=Aron Burton - Past, Present, And Future
TTITLE6=Letizia Micheli - One Bourbon, One Scotch, One Beer
TTITLE7=Mick Kolassa - Baby's Got Another Lover
TTITLE8=The Toler Bros. - Goin' Down Slow
TTITLE9=Tom Vieth - Extension 309
TTITLE10=Barefoot Iano - Morning After
EXTD=
EXTT0=
EXTT1=
EXTT2=
EXTT3=
EXTT4=
EXTT5=
EXTT6=
EXTT7=
EXTT8=
EXTT9=
EXTT10=
PLAYORDER=
